<?xml version="1.0" encoding="iso-8859-1"?>
<!-- Generator: Adobe Illustrator 16.0.0, SVG Export Plug-In . SVG Version: 6.00 Build 0)  -->
<!DOCTYPE svg PUBLIC "-//W3C//DTD SVG 1.1//EN" "http://www.w3.org/Graphics/SVG/1.1/DTD/svg11.dtd">
<svg xmlns="http://www.w3.org/2000/svg" xmlns:xlink="http://www.w3.org/1999/xlink" version="1.1" id="Capa_1" x="0px" y="0px" width="512px" height="512px" viewBox="0 0 380.721 380.721" style="enable-background:new 0 0 380.721 380.721;" xml:space="preserve">
<g>
	<g>
		<path d="M137.228,123.175v47.259L82.091,344.006c-4.235,14.418,9.399,31.742,24.725,35.727c2.567,0.662,5.153,0.988,7.697,0.988    c12.624,0,30.662-7.762,34.182-19.787l48.601-183.528c0.691-2.359,1.034-4.775,1.034-7.209l-6.199-47.166L137.228,123.175z" fill="#FFFFFF"/>
		<path d="M299.412,57.024l-14.372-4.723V46.51h-37.343C244.525,17.939,227.957,0,203.559,0L101.296,0.645v113.404l102.32-0.65    c24.179,0,40.7-17.695,44.023-45.905h37.4v-5.031l14.372-3.346V57.024z M203.559,98.997l-87.866,0.563V14.953l87.912-0.546    c28.095,0,30.278,32.375,30.278,42.298S231.699,98.997,203.559,98.997z" fill="#FFFFFF"/>
	</g>
</g>
<g>
</g>
<g>
</g>
<g>
</g>
<g>
</g>
<g>
</g>
<g>
</g>
<g>
</g>
<g>
</g>
<g>
</g>
<g>
</g>
<g>
</g>
<g>
</g>
<g>
</g>
<g>
</g>
<g>
</g>
</svg>
