<?xml version="1.0" encoding="iso-8859-1"?>
<!-- Generator: Adobe Illustrator 16.0.0, SVG Export Plug-In . SVG Version: 6.00 Build 0)  -->
<!DOCTYPE svg PUBLIC "-//W3C//DTD SVG 1.1//EN" "http://www.w3.org/Graphics/SVG/1.1/DTD/svg11.dtd">
<svg xmlns="http://www.w3.org/2000/svg" xmlns:xlink="http://www.w3.org/1999/xlink" version="1.1" id="Capa_1" x="0px" y="0px" width="512px" height="512px" viewBox="0 0 460.931 460.93" style="enable-background:new 0 0 460.931 460.93;" xml:space="preserve">
<g>
	<path d="M456.217,355.435l-228.89-228.89c2.135-5.823,3.256-12.036,3.256-18.423c0-14.27-5.557-27.685-15.646-37.773   l-32.805-32.806c-10.09-10.09-23.506-15.646-37.775-15.646s-27.684,5.557-37.774,15.646l-70.724,70.724l-14.518,14.517   c-2.688,2.418-6.235,8.074-6.8,9.099c-11.036,20.039-5.053,49.533,15.31,74.482L3.368,232.848c-4.491,4.49-4.491,11.771,0,16.264   c2.246,2.246,5.189,3.368,8.132,3.368s5.886-1.123,8.132-3.368l26.495-26.495c16.141,13.086,34.925,20.672,51.913,20.672   c0.001,0,0.001,0,0.002,0c3.189,0,6.266-0.263,9.21-0.781c8.833-1.553,16.481-5.407,22.444-11.37l8.308-8.309l32.884-32.884   c10.592,19.417,47.464,85.399,72.95,110.884l133.491,133.492c3.143,3.143,7.271,4.715,11.398,4.713   c4.128,0,8.257-1.57,11.401-4.713l56.089-56.088C462.502,371.947,462.501,361.719,456.217,355.435z M120.727,51.685   c6.312-6.312,14.705-9.789,23.631-9.789c8.927,0,17.32,3.477,23.633,9.789l32.805,32.806c6.312,6.312,9.789,14.705,9.789,23.631   c0,8.927-3.477,17.32-9.789,23.632l-63.407,63.406l-80.069-80.07L120.727,51.685z M388.729,417.438L257.98,286.687   c-25.625-25.625-66.479-100.639-71.764-110.438l31.265-31.265l221.851,221.851L388.729,417.438z" fill="#FFFFFF"/>
</g>
<g>
</g>
<g>
</g>
<g>
</g>
<g>
</g>
<g>
</g>
<g>
</g>
<g>
</g>
<g>
</g>
<g>
</g>
<g>
</g>
<g>
</g>
<g>
</g>
<g>
</g>
<g>
</g>
<g>
</g>
</svg>
