<?xml version="1.0" encoding="iso-8859-1"?>
<!-- Generator: Adobe Illustrator 18.0.0, SVG Export Plug-In . SVG Version: 6.00 Build 0)  -->
<!DOCTYPE svg PUBLIC "-//W3C//DTD SVG 1.1//EN" "http://www.w3.org/Graphics/SVG/1.1/DTD/svg11.dtd">
<svg xmlns="http://www.w3.org/2000/svg" xmlns:xlink="http://www.w3.org/1999/xlink" version="1.1" id="Capa_1" x="0px" y="0px" viewBox="0 0 56.17 56.17" style="enable-background:new 0 0 56.17 56.17;" xml:space="preserve" width="512px" height="512px">
<path d="M54.771,1.466C53.84,0.534,52.395,0,50.807,0c-1.589,0-3.033,0.534-3.965,1.466c-1.259,1.259-1.882,2.972-1.753,4.824  c0.084,1.212,0.488,2.396,1.116,3.328l-7.435,7.435l-2.424-0.559c-1.094-0.253-2.226,0.071-3.022,0.867L2.472,48.212  c-0.881,0.88-1.366,2.051-1.366,3.297c0,1.246,0.485,2.417,1.366,3.297c0.909,0.909,2.104,1.363,3.297,1.363  c1.194,0,2.389-0.455,3.298-1.363l33.327-33.326c0.587-0.588,0.81-1.45,0.58-2.249c-0.229-0.799-0.875-1.412-1.686-1.599  l-0.22-0.051l7.895-7.895L48.257,8.98c-0.646-0.647-1.096-1.731-1.172-2.83c-0.063-0.896,0.091-2.189,1.172-3.271  c1.08-1.079,3.522-1.161,4.808-0.246v4.539c0,0.552,0.447,1,1,1s1-0.448,1-1V1.759L54.771,1.466z M14.502,46.545l-2.354-5.179  l2.375-2.375l2.354,5.179L14.502,46.545z M10.617,50.43l-2.354-5.179l2.375-2.375l2.354,5.179L10.617,50.43z M7.653,53.393  c-1.039,1.037-2.728,1.039-3.767,0c-0.503-0.503-0.78-1.172-0.78-1.883s0.277-1.38,0.78-1.883l2.866-2.866l2.354,5.179L7.653,53.393  z M40.979,20.067L18.387,42.659l-2.354-5.179l18.706-18.706c0.236-0.237,0.551-0.365,0.876-0.365c0.094,0,0.188,0.011,0.283,0.033  l2.758,0.637c0.13,0.059,0.268,0.094,0.408,0.094l0,0l1.775,0.41c0.137,0.031,0.191,0.127,0.212,0.201  C41.073,19.858,41.078,19.968,40.979,20.067z" fill="#FFFFFF"/>
<g>
</g>
<g>
</g>
<g>
</g>
<g>
</g>
<g>
</g>
<g>
</g>
<g>
</g>
<g>
</g>
<g>
</g>
<g>
</g>
<g>
</g>
<g>
</g>
<g>
</g>
<g>
</g>
<g>
</g>
</svg>
